<svg width="170" height="54" viewBox="0 0 170 54" fill="none" xmlns="http://www.w3.org/2000/svg">
<g clip-path="url(#clip0_41_13)">
<path d="M20.8557 53.4591L20.0887 52.3508C18.2476 49.7856 15.8299 47.6754 13.0247 46.1852C12.352 45.7804 11.6052 45.3822 10.9055 45.0039C7.97902 43.3911 4.94487 41.6855 2.60366 38.7653C-0.309398 35.0886 -0.760147 30.4561 1.18413 24.6091C1.4936 23.68 1.8098 22.8106 2.11254 21.9544C2.99386 19.5121 3.76081 17.4082 3.87518 15.3176C4.02318 12.6629 3.24278 10.1742 1.34559 7.21416L0.995759 6.66331L6.40476 0H35.3335L40.7156 6.67658L40.3657 7.22743C38.4753 10.1808 37.6747 12.6829 37.8362 15.3309C37.9505 17.4281 38.7175 19.532 39.5988 21.9677C39.9015 22.8039 40.2177 23.6733 40.5272 24.6224C42.4849 30.4694 42.0207 35.1018 39.1077 38.7786C36.7665 41.7386 33.7256 43.4243 30.8058 45.0172C30.133 45.3955 29.393 45.7937 28.6933 46.1985C25.8856 47.6851 23.4671 49.796 21.6293 52.3641L20.8557 53.4591Z" fill="white"/>
<path d="M37.567 37.2256C38.9123 35.4011 39.5927 33.1815 39.4978 30.9273C39.3743 28.6721 38.9071 26.4482 38.1119 24.3304C36.9548 20.9523 35.8111 18.1582 35.6631 15.4172C35.5602 12.4031 36.3986 9.43067 38.0648 6.90223L34.1494 2.14368H12.1904L35.1047 39.7542C36.0218 39.0081 36.8481 38.1596 37.567 37.2256Z" fill="white"/>
<path d="M7.55512 2.14368L4.86407 5.36914L28.4107 43.9221C29.5275 43.2982 30.6914 42.681 31.8351 42.0041L7.55512 2.14368Z" fill="white"/>
<path d="M3.63964 6.90223C5.29918 9.43277 6.13054 12.4052 6.02121 15.4172C5.8732 18.1582 4.73624 20.9523 3.57909 24.3304C2.78191 26.4479 2.31244 28.6718 2.18647 30.9273C2.09157 33.1815 2.77202 35.4011 4.1173 37.2256C6.66033 40.544 10.4278 42.3094 13.7109 44.1809C16.1328 45.5547 18.9315 47.2869 20.8354 50.1142C22.7326 47.2869 25.5447 45.5547 27.96 44.1809L28.404 43.9221L4.85733 5.36914L3.63964 6.90223Z" fill="#00782C"/>
<path d="M34.2099 40.4842L34.3579 40.3781C34.6001 40.1989 34.8356 40.013 35.071 39.8206L12.1904 2.14368H7.55511L31.8485 42.0041L31.9091 41.9642C32.4204 41.659 32.9249 41.3404 33.4295 41.0019L33.6111 40.8758C33.813 40.7364 34.0148 40.5971 34.2099 40.4511" fill="#C80C0F"/>
<path d="M33.4295 41.002C32.9249 41.3404 32.4204 41.6656 31.9091 41.9643L31.8485 42.0041C30.7048 42.6678 29.5409 43.2983 28.4242 43.9221L27.9801 44.181C25.5582 45.5548 22.7528 47.287 20.8556 50.1142C18.9517 47.287 16.1463 45.5548 13.7311 44.181C10.4412 42.3094 6.69397 40.5706 4.13748 37.2256C2.7922 35.4011 2.11175 33.1815 2.20665 30.9274C2.33262 28.6719 2.80209 26.448 3.59927 24.3304C4.75642 20.9523 5.89338 18.1582 6.04139 15.4173C6.1443 12.4032 5.30588 9.43072 3.63963 6.90229L4.8977 5.36919L7.58874 2.14373H34.1493L38.0648 6.90229C36.3986 9.43072 35.5602 12.4032 35.6631 15.4173C35.8111 18.1582 36.9548 20.9523 38.1119 24.3304C39.1883 27.5824 39.4574 28.9164 39.4978 30.9274C39.5927 33.1815 38.9123 35.4011 37.567 37.2256C36.8464 38.1602 36.0203 39.0108 35.1047 39.7609C34.8692 39.9534 34.6337 40.1392 34.3915 40.3184L34.2099 40.4843C34.0148 40.6303 33.813 40.7697 33.6111 40.9091L33.4295 41.0352V41.002ZM39.6593 24.8945C38.4348 21.2178 37.0893 18.3507 36.9279 15.3774C36.7866 12.7625 37.4257 10.1278 39.6189 6.74964L34.9096 0.929199H6.85543L2.1461 6.74964C4.3124 10.141 4.95825 12.7758 4.83715 15.3774C4.63532 18.3507 3.33016 21.2377 2.06537 24.8945C0.174915 30.5292 0.63912 34.8231 3.33016 38.2013C6.09521 41.6922 9.84922 43.285 13.4889 45.4021C16.4123 46.9596 18.9329 49.1601 20.8556 51.8332C22.7751 49.1574 25.2965 46.9562 28.2223 45.4021C31.862 43.285 35.6227 41.6922 38.381 38.2013C41.0721 34.8231 41.543 30.5491 39.6458 24.8945" fill="#1D1D1B"/>
<path d="M27.7716 15.1915C26.7071 15.1915 25.6665 14.8801 24.7815 14.2967C23.8964 13.7133 23.2066 12.8841 22.7992 11.9139C22.3918 10.9438 22.2853 9.87622 22.4929 8.8463C22.7006 7.81637 23.2132 6.87033 23.9659 6.1278C24.7186 5.38526 25.6776 4.87959 26.7216 4.67472C27.7656 4.46986 28.8478 4.575 29.8312 4.97686C30.8147 5.37872 31.6552 6.05924 32.2466 6.93236C32.838 7.80549 33.1537 8.83201 33.1537 9.88211C33.1537 11.2903 32.5866 12.6407 31.5773 13.6364C30.568 14.6321 29.199 15.1915 27.7716 15.1915ZM27.7716 3.64356C26.5152 3.64225 25.2867 4.00857 24.2414 4.69619C23.1961 5.38381 22.3811 6.36183 21.8994 7.50651C21.4177 8.65119 21.2909 9.9111 21.5352 11.1268C21.7795 12.3426 22.3838 13.4595 23.2718 14.3364C24.1597 15.2133 25.2913 15.8106 26.5234 16.0529C27.7555 16.2952 29.0328 16.1715 30.1937 15.6975C31.3545 15.2235 32.3468 14.4205 33.0449 13.3901C33.7431 12.3596 34.1157 11.1481 34.1157 9.90866C34.1157 8.2482 33.4475 6.65565 32.258 5.48091C31.0684 4.30617 29.4548 3.64532 27.7716 3.64356Z" fill="#1D1D1B"/>
<path d="M27.0652 6.07263H25.5515V13.4793H30.4357V11.9993H27.0652V6.07263Z" fill="#1D1D1B"/>
<path d="M111.086 50.3531C112.304 49.1386 112.916 47.3068 112.916 44.8711V39.6148C112.962 38.3192 112.79 37.025 112.405 35.7854C112.094 34.9202 111.606 34.1273 110.972 33.4559C110.453 32.9566 109.882 32.5117 109.27 32.1285C108.597 31.6972 107.924 31.2326 107.252 30.7282C106.634 30.2631 106.076 29.726 105.59 29.1287C105.111 28.5408 104.859 27.8051 104.877 27.0514V23.149C104.823 22.3566 104.9 21.5608 105.105 20.793C105.168 20.6397 105.278 20.5094 105.419 20.4202C105.56 20.331 105.725 20.2873 105.893 20.2952C106.063 20.2893 106.231 20.3335 106.376 20.4221C106.521 20.5108 106.636 20.6398 106.707 20.793C106.93 21.5576 107.014 22.3553 106.956 23.149V28.3058H112.539V22.6446C112.539 20.1757 111.941 18.344 110.736 17.1361C110.097 16.5243 109.338 16.0489 108.504 15.7395C107.671 15.4301 106.782 15.2932 105.893 15.3375C104.996 15.2838 104.098 15.4188 103.258 15.7335C102.419 16.0481 101.656 16.5353 101.022 17.1626C99.8691 18.3838 99.295 20.2288 99.2995 22.6977V26.5006C99.2775 27.5191 99.3883 28.5363 99.6292 29.5269C99.8073 30.2629 100.107 30.9647 100.517 31.6042C101.02 32.339 101.657 32.9757 102.394 33.4824C103.168 34.0333 103.921 34.5908 104.648 35.1615C105.354 35.7032 105.993 36.3247 106.552 37.0132C107.098 37.6966 107.385 38.546 107.366 39.4157V44.3734C107.442 45.1583 107.32 45.9497 107.009 46.6763C106.912 46.8291 106.777 46.955 106.617 47.0421C106.457 47.1291 106.277 47.1746 106.094 47.1741C105.915 47.1759 105.738 47.1307 105.582 47.0433C105.426 46.9559 105.297 46.8293 105.206 46.6763C104.916 45.9445 104.803 45.1559 104.877 44.3734V37.7366H99.2659V44.8247C99.2659 47.2581 99.8736 49.0921 101.089 50.3265C101.743 50.9576 102.522 51.448 103.378 51.7667C104.234 52.0854 105.147 52.2255 106.061 52.1782C106.98 52.2296 107.901 52.0941 108.766 51.7802C109.63 51.4662 110.42 50.9805 111.086 50.3531ZM113.421 15.8419V20.7996H117.377V51.6804H122.961V20.793H126.815V15.8353L113.421 15.8419ZM129.782 17.1693C128.585 18.3904 127.986 20.2355 127.986 22.7043V44.8711C127.986 47.3068 128.592 49.1386 129.809 50.3531C130.467 50.9777 131.247 51.4621 132.103 51.7761C132.958 52.0901 133.87 52.227 134.781 52.1782C135.692 52.2268 136.602 52.0872 137.455 51.7683C138.308 51.4495 139.083 50.9584 139.732 50.3265C140.93 49.0921 141.535 47.2604 141.535 44.8247V22.6446C141.535 20.1757 140.923 18.344 139.706 17.1361C139.043 16.5201 138.261 16.0431 137.407 15.734C136.552 15.4248 135.643 15.29 134.734 15.3375C133.83 15.2928 132.927 15.4317 132.079 15.7457C131.232 16.0596 130.46 16.5419 129.809 17.1626L129.782 17.1693ZM135.622 20.793C135.891 21.5483 135.994 22.3514 135.925 23.149V44.3866C135.985 45.1647 135.891 45.9469 135.649 46.6896C135.572 46.8438 135.452 46.9728 135.303 47.0612C135.154 47.1495 134.982 47.1933 134.808 47.1874C134.632 47.1908 134.458 47.1461 134.306 47.0582C134.154 46.9704 134.03 46.8428 133.947 46.6896C133.68 45.9521 133.577 45.1668 133.644 44.3866V23.149C133.582 22.3535 133.675 21.5535 133.92 20.793C133.996 20.6388 134.116 20.5097 134.266 20.4214C134.415 20.3331 134.587 20.2892 134.761 20.2952C134.937 20.2918 135.111 20.3365 135.262 20.4243C135.414 20.5122 135.539 20.6397 135.622 20.793ZM146.837 15.7357C145.888 15.8021 144.738 15.9348 143.386 16.1406V51.6804H149.07V34.843H149.844C150.591 34.843 150.974 35.6925 151.19 36.4623C151.483 37.5211 151.612 38.6175 151.573 39.7144V51.6605H157.204V40.0661C157.264 38.3908 157.051 36.7168 156.572 35.1084C156.215 33.9909 155.469 33.034 154.466 32.4073C154.983 32.1701 155.443 31.8265 155.814 31.3995C156.185 30.9725 156.46 30.472 156.619 29.9318C156.93 28.6792 157.075 27.3919 157.049 26.1024V24.045C157.06 22.9096 156.943 21.7766 156.7 20.6669C156.485 19.6982 156.051 18.7904 155.428 18.0122C154.769 17.2203 153.911 16.6136 152.939 16.2534C151.656 15.8004 150.298 15.5888 148.936 15.6296C148.458 15.6296 147.752 15.6627 146.803 15.7291L146.837 15.7357ZM151.27 24.2905V25.8834C151.27 27.7151 151.095 28.9562 150.759 29.5867C150.629 29.8735 150.416 30.116 150.147 30.2837C149.877 30.4514 149.564 30.5368 149.245 30.5291H149.043V20.6934C149.205 20.6346 149.376 20.601 149.548 20.5939C150.701 20.5939 151.277 21.8283 151.277 24.2972L151.27 24.2905ZM158.832 15.8353V51.6738H170V46.7228H164.47V34.7766H168.728V29.7061H164.47V20.793H169.946V15.8353H158.832Z" fill="#00782C"/>
<path d="M52.731 15.8354V51.6739H56.8954V34.8431H61.3558V30.788H56.8954V19.7909H61.9142V15.8088L52.731 15.8354ZM70.7476 19.5918H72.0931L72.8668 34.8563H69.9604L70.7476 19.5918ZM67.0945 15.8354L64.9618 51.6739H69.1733L69.7855 38.6526H73.1493L73.7481 51.6739H77.8586L75.726 15.8354H67.0945ZM90.4325 15.8354V37.4646L86.0798 15.8354H81.9961V51.6739H85.851V29.4009L90.2374 51.6805H94.3211V15.842L90.4325 15.8354Z" fill="#C80C0F"/>
<path d="M52.731 0.982239V12.059H55.3481V10.8378H54.0025V0.982239H52.731ZM60.4341 0.982239V12.059H63.475V10.8378H61.6989V6.63676H63.0444V5.40896H61.6989V2.2034H63.4548V0.982239H60.4341ZM70.9292 2.24322C71.0591 2.52102 71.1103 2.82836 71.0772 3.13255V4.09488H72.3353V2.9799C72.3353 1.54636 71.7298 0.829594 70.5121 0.829594C69.2944 0.829594 68.7091 1.553 68.7091 2.99318V9.90868C68.7091 11.3422 69.2002 12.059 70.1824 12.059C70.3869 12.0711 70.5909 12.0289 70.7732 11.9367C70.9554 11.8444 71.1092 11.7056 71.2185 11.5347L71.3329 12.059H72.3353V5.87353H70.7341V6.98851H71.0772V10.5458C71.0194 10.6366 70.939 10.7111 70.8435 10.7622C70.7481 10.8134 70.6409 10.8394 70.5323 10.8378C70.4522 10.8413 70.3724 10.8255 70.2998 10.792C70.2272 10.7585 70.1638 10.7082 70.1152 10.6454C69.9846 10.3678 69.9334 10.0602 69.9672 9.75604V3.11928C69.9368 2.81581 69.9854 2.5097 70.1084 2.22995C70.1542 2.1673 70.2151 2.1169 70.2856 2.08329C70.356 2.04969 70.4339 2.03394 70.5121 2.03748C70.5922 2.03406 70.6719 2.04977 70.7446 2.08328C70.8172 2.11679 70.8805 2.16711 70.9292 2.22995V2.24322ZM77.7443 12.0457H79.0292V0.982239H77.7443V12.0457ZM84.223 12.0457H85.5214L85.6963 8.56806H86.7525L86.9275 12.0457H88.199L87.5262 0.968966H84.8352L84.223 12.0457ZM86.0058 2.1304H86.4296L86.6987 7.34689H85.7569L86.0058 2.1304ZM100.605 12.0457H102.145L103.067 4.42008L103.995 12.0457H105.59L106.263 0.968966H104.917L104.715 8.80035L103.915 0.968966H102.441L101.641 8.80035L101.432 0.968966H99.979L100.605 12.0457ZM110.911 12.0457H112.21L112.385 8.56806H113.454L113.623 12.0457H114.894L114.221 0.968966H111.53L110.911 12.0457ZM112.701 2.1304H113.125L113.387 7.34689H112.445L112.701 2.1304ZM120.909 0.942419C120.693 0.942419 120.411 0.995513 120.054 1.04861V12.059H121.326V6.82923H121.729C121.866 6.8186 122.003 6.8542 122.116 6.93017C122.23 7.00615 122.314 7.11799 122.355 7.24734C122.478 7.62885 122.533 8.02864 122.517 8.42869V12.059H123.754V8.53488C123.76 8.20662 123.742 7.8784 123.701 7.55263C123.673 7.31453 123.617 7.08056 123.532 6.85577C123.464 6.68263 123.361 6.5247 123.23 6.3912C123.101 6.26643 122.95 6.1653 122.786 6.09255C122.956 6.02974 123.11 5.93052 123.237 5.802C123.364 5.67348 123.46 5.51885 123.519 5.34923C123.654 4.94033 123.718 4.51164 123.707 4.08161V3.41793C123.708 3.08032 123.683 2.74313 123.633 2.40914C123.588 2.12421 123.48 1.85247 123.317 1.61273C123.146 1.38164 122.913 1.20232 122.644 1.09506C122.27 0.95795 121.873 0.894807 121.474 0.909235C121.306 0.909235 121.117 0.909235 120.902 0.909235L120.909 0.942419ZM122.247 2.42905C122.397 2.75095 122.464 3.10425 122.443 3.45775V3.98206C122.48 4.43515 122.406 4.89047 122.227 5.30941C122.167 5.42156 122.075 5.51431 121.963 5.57666C121.851 5.639 121.723 5.66833 121.595 5.66116H121.346V2.17686H121.507H121.702C121.815 2.17789 121.926 2.20936 122.022 2.26785C122.118 2.32634 122.196 2.40962 122.247 2.50869V2.42905ZM132.837 10.1012V8.3955C132.85 7.99123 132.796 7.58754 132.675 7.20089C132.576 6.92659 132.43 6.67079 132.245 6.44429C132.072 6.24774 131.873 6.07575 131.653 5.93326C131.445 5.80628 131.247 5.66431 131.061 5.50851C130.87 5.35677 130.714 5.16674 130.603 4.95102C130.468 4.66497 130.405 4.3505 130.421 4.03515V3.13255C130.392 2.83031 130.436 2.52557 130.549 2.24322C130.592 2.18026 130.65 2.12934 130.718 2.09556C130.787 2.06179 130.863 2.04634 130.939 2.05076C131.018 2.0466 131.096 2.06208 131.166 2.09573C131.237 2.12939 131.298 2.18013 131.343 2.24322C131.456 2.52557 131.5 2.83031 131.471 3.13255V4.79174H132.716V2.9799C132.716 1.54636 132.124 0.829594 130.939 0.829594C130.687 0.806331 130.433 0.843687 130.199 0.938464C129.965 1.03324 129.757 1.18262 129.594 1.37381C129.28 1.85445 129.131 2.42244 129.17 2.99318V4.22098C129.162 4.5783 129.212 4.93463 129.318 5.27622C129.406 5.52743 129.53 5.7645 129.688 5.97972C129.853 6.20645 130.055 6.40393 130.287 6.56376C130.503 6.70981 130.71 6.86942 130.906 7.0416C131.103 7.21519 131.267 7.42194 131.39 7.65219C131.532 7.95065 131.599 8.27848 131.585 8.60788V9.93523C131.62 10.2409 131.564 10.5499 131.424 10.8246C131.372 10.8872 131.306 10.9372 131.231 10.9706C131.157 11.004 131.075 11.0199 130.993 11.017C130.912 11.0221 130.831 11.0072 130.757 10.9736C130.683 10.94 130.618 10.8888 130.569 10.8246C130.429 10.5499 130.373 10.2409 130.408 9.93523V7.96411H129.136V10.0481C129.136 11.4949 129.742 12.2183 130.96 12.2183C132.177 12.2183 132.79 11.5015 132.79 10.068L132.837 10.1012ZM137.916 2.23659H139.719L137.398 12.059H141.246V10.8113H139.08L141.34 0.982239H137.977L137.916 2.23659ZM146.352 12.059H147.658L147.833 8.58133H148.895L149.07 12.059H150.335L149.662 0.982239H146.971L146.352 12.059ZM148.142 2.14367H148.566L148.835 7.36017H147.893L148.142 2.14367ZM155.711 12.059H157.251L158.173 4.43336L159.101 12.059H160.669L161.342 0.982239H159.996L159.787 8.81362L158.987 0.982239H157.514L156.72 8.81362L156.518 0.982239H155.058L155.711 12.059ZM166.017 12.059H167.316L167.491 8.58133H168.554L168.728 12.059H170L169.327 0.982239H166.636L166.017 12.059ZM167.8 2.14367H168.224L168.493 7.36017H167.551L167.8 2.14367Z" fill="#1D1D1B"/>
</g>
<defs>
<clipPath id="clip0_41_13">
<rect width="170" height="53.4591" fill="white"/>
</clipPath>
</defs>
</svg>
