<svg xmlns="http://www.w3.org/2000/svg" xmlns:xlink="http://www.w3.org/1999/xlink" viewBox="0 0 334.3 85.2"><defs><path id="a" d="M0 0h58.3v85.2H0z"/></defs><clipPath id="b"><use xlink:href="#a" overflow="visible"/></clipPath><path clip-path="url(#b)" fill="#fff" d="M0 0l5.2 14.6H0l4.6 5.5v32.2l-3.1-1.1v8.1l3.1 1.1v8.2l-3.1-1v8.1l27.6 9.5 27.6-9.5v-8.1l-3 1v-8.2l3-1.1v-8.1l-3 1.1V20.1l4.6-5.5h-5.2L58.3 0z"/><path clip-path="url(#b)" fill="#004994" d="M56.1 1.5L51 16.1h4l-2.9 3.4v34.9l3.1-1v4.8l-3.1 1.1v11.5l3.1-1.1v4.9l-26.1 9-26-9v-4.9l3 1.1V59.3l-3-1.1v-4.8l3 1V19.5l-2.8-3.4h3.9l-5-14.6z"/><path clip-path="url(#b)" fill="#fff" d="M51.7 17.7L50.6 19v37.6l3.1-1.1v1.6l-3.1 1.1v14.7l3.1-1v1.6L29.1 82 4.6 73.5v-1.6l3.1 1V58.2l-3.1-1.1v-1.6l3.1 1.1V19l-1.1-1.3h11.8v1.5H9.2v37.9l19.1 6.6V23h1.6v40.7l19.2-6.6V19.2h-9.2v-1.5zm2.2-14.6l-4.6 13h-9.4v-2.3H18.4v2.3H9l-4.7-13z"/><path clip-path="url(#b)" fill="#004994" d="M49.1 58.7v14.8l-20 6.8-19.9-6.8V58.7l19.9 6.9z"/><path clip-path="url(#b)" fill="#fff" d="M47.5 60.9v11.5l-18.4 6.3-18.4-6.3V60.9l18.4 6.3zM19.9 15.4h18.4v6.1H19.9z"/><path clip-path="url(#b)" fill="#fff" d="M39.9 20.7h7.6V56l-15.8 5.5V23h8.2z"/><g clip-path="url(#b)"><defs><path id="c" d="M0 0h58.3v85.2H0z"/></defs><clipPath id="d"><use xlink:href="#c" overflow="visible"/></clipPath><path d="M46 39.1L38.2 47v-2l7.8-7.8v-4.7l-7.8 9.2v-2l7.8-9.3v-7.2L33.2 42v7.3c1.1.7 1.8 2 1.8 3.4s-.7 2.6-1.8 3.4v2.8c.2 0 .4.1.6.1 1 0 2-.6 2.4-1.4 1.5-.1 2.7-1.3 2.7-2.8 0-.6-.2-1.1-.4-1.5.7-.5 1.1-1.3 1.1-2.3 0-.7-.2-1.3-.6-1.7l7-5.5v-4.7z" clip-path="url(#d)" fill="#004994"/><path d="M12.3 39.1l7.8 7.8V45l-7.8-7.8v-4.7l7.8 9.2v-2l-7.8-9.3v-7.2L25.1 42v7.3c-1.1.7-1.8 2-1.8 3.4s.7 2.6 1.8 3.4v2.8c-.2 0-.4.1-.6.1-1 0-2-.6-2.4-1.4-1.5-.1-2.7-1.3-2.7-2.8 0-.6.2-1.1.4-1.5-.7-.5-1.1-1.3-1.1-2.3 0-.7.2-1.3.6-1.7l-7-5.5v-4.7z" clip-path="url(#d)" fill="#fff"/><path d="M24.4 20.7v-4.6h-.9l-.8.5v.6h.6v3.5h1.1zm2.9-2.8c0 .4-.7.4-.7 0v-.7c0-.4.7-.4.7 0v.7zm1 1.9v-2.6c0-1.5-2.8-1.5-2.8 0v.8c0 1 1.1 1.4 1.7.9v.8c0 .4-.6.4-.6 0v-.1h-1.1v.1c.1 1.5 2.8 1.5 2.8.1m1.1 1H32v-.9h-1.4l1.1-1.6c.3-.5.2-.6.2-1.2 0-1.5-2.7-1.5-2.7 0v.6h1v-.5c0-.4.7-.4.7 0 0 .5 0 .5-.2.8l-1.3 1.8v1zm6.1-.9h-1.4l1.1-1.6c.3-.5.2-.6.2-1.2 0-1.5-2.7-1.5-2.7 0v.6h1v-.5c0-.4.7-.4.7 0 0 .5 0 .5-.2.8l-1.3 1.8v.9h2.6v-.8zM15.3 68.2c0 .3-.1.4-.3.4-.3 0-.6-.2-.9-.4v-2.8l.7.3c.2.1.3.1.3.3.1.1.1.3.1.4v1.8zm1.8.4v-1.7c0-.8-.2-1.4-.6-1.8-.4-.5-.9-.8-1.6-1l-2.6-.9v7.9l1.8.6v-2.1c.7.3 1.4.5 1.9.5.7 0 1.1-.5 1.1-1.5m4 3.7c0 .2 0 .4-.3.3-.2 0-.5-.1-.7-.3-.1-.1-.2-.3-.2-.5v-4.1c0-.4.3-.4.7-.3.4.2.6.3.6.7v4.2zm1.8.6v-4.1c0-1.5-1-2.4-2.2-2.8-1.2-.4-2.6-.5-2.6 1.2v4.1c0 .9.3 1.6 1.1 2.2.6.4 1.7.9 2.5.9.9 0 1.2-.7 1.2-1.5m2.7 1.3L28 70v-1.3l-3.8-1.3h-.1V69l2.1.7-2.4 4.3v1.3l4 1.4h.1V75l-2.3-.8zm6.7 1.6l1.6-.5v-7.9l-1.6.6v4.7l-1.5-4.2-1.6.5v7.9l1.6-.6v-4l1.5 3.5zm5.8-4.9l-1.1.4.4-3.3.7 2.9zm.7 2.7l1.7-.6-2-7.2-2.1.7-1.6 8.5 1.9-.6.2-1.4 1.6-.6.3 1.2zm5.2-9.9l.8-1.4-1.4.5-.5 1.2 1.1-.3zm1.9 7.4v-7.9l-1.6.6v4.5l-1.5-4-1.6.5v7.9l1.6-.6V68l1.5 3.7 1.6-.6zM26 9.9v.7c0 2.4-4.7 2.4-4.7 0v-1h1.8v.9c0 .7 1.1.6 1.1 0v-.3c0-1.5-2.9-.9-2.9-3.2v-.7c0-2.4 4.7-2.4 4.7 0v1h-1.8v-.9c0-.7-1.1-.6-1.1 0v.3c0 1.4 2.9.9 2.9 3.2m2.8-5.3h1.8v6.2h1.6v1.5h-3.5l.1-7.7zm4.4 0H37v1.5h-2v1.6h1.5v1.5H35v1.6h2v1.5h-3.8V4.6zm10.4 7.7V4.6h1.8v3.1h1.3V4.6h1.8v7.7h-1.8V9.2h-1.3v3.1h-1.8zm-1.1-6v1.3h-1.8V6.4c0-.6-1.1-.7-1.1 0v4c0 .7 1.1.6 1.1 0v-1h1.8v1.3c0 2.4-4.7 2.4-4.7 0V6.3c.1-2.4 4.7-2.4 4.7 0m-26.9 6V4.6h1.8v3.1h.3l1.2-3.1h1.8l-1.5 3.8 1.6 3.9H19l-1.2-3.1h-.4v3.1h-1.8zm-5.9 0V4.6h1.8v3.1h.3L13 4.6h1.8l-1.5 3.8 1.6 3.9h-1.8l-1.2-3.1h-.4v3.1H9.7z" clip-path="url(#d)" fill="#004994"/></g><path d="M98.2 61.5H87.9c-.6 0-1.1-.5-1.1-1.1V21.2c0-1.5-.7-2.1-2.1-2.1h-3.8c-1.5 0-2.2.7-2.2 2.1v45.4c0 1.4.7 2.1 2.2 2.1h17.4c1.5 0 2.1-.7 2.1-2.1v-3c-.1-1.4-.8-2.1-2.2-2.1zm26.4-42.4h-17.4c-1.4 0-2.1.7-2.1 2.1v45.4c0 1.4.7 2.1 2.1 2.1h17.4c1.5 0 2.2-.7 2.2-2.1v-3c0-1.4-.7-2.1-2.2-2.1h-10.3c-.8 0-1.1-.3-1.1-1V47.2h8.4c1.4 0 2.1-.7 2.1-2.1v-3c0-1.4-.7-2.1-2.1-2.1h-8.4V27.4c0-.8.3-1.1 1.1-1.1h10.3c1.5 0 2.2-.7 2.2-2.1v-3c0-1.4-.7-2.1-2.2-2.1zm27.3 0h-10c-6.1 0-10.2 4.1-10.2 10.1v29.4c0 6.1 4 10.1 10.2 10.1h10c1.5 0 2.1-.7 2.1-2.1v-3c0-1.4-.7-2.1-2.1-2.1h-6.8c-3.5 0-5.3-1.7-5.3-5.2V31.5c0-3.5 1.9-5.2 5.1-5.2h6.9c1.5 0 2.1-.7 2.1-2.1v-3c.1-1.4-.6-2.1-2-2.1zm34.1 0h-3.9c-1.5 0-2.2.7-2.2 2.1V40h-12.2V21.2c0-1.5-.7-2.1-2.1-2.1h-3.8c-1.5 0-2.1.7-2.1 2.1v45.4c0 1.4.7 2.1 2.1 2.1h3.8c1.4 0 2.1-.7 2.1-2.1V47.2h12.2v19.4c0 1.4.7 2.1 2.2 2.1h3.9c1.4 0 2.1-.7 2.1-2.1V21.2c-.1-1.4-.8-2.1-2.1-2.1zm29.1 22.5c-2.2-1.6-3.6-4-3.6-7.5v-5.7c0-5.8 3.6-9.3 9.3-9.3h6.9c.7 0 1 .3 1 1v1.5c0 .5-.4 1-1 1h-6c-4 0-6.3 2.2-6.3 6.4v4.5c0 2.5 1 4.2 2.4 5.3l9.9 7.3c2.1 1.6 3.6 3.9 3.6 7.4v5.7c0 5.8-3.5 9.3-9.3 9.3h-8.1c-.7 0-1-.3-1-1V66c0-.5.4-1 1-1h7.2c4.1 0 6.4-2.2 6.4-6.4v-4.5c0-2.5-.9-4.2-2.5-5.3l-9.9-7.2zM241 19.1c.8 0 1.1.3 1.1 1v21.6h2.8c1.2 0 2.3-.8 2.6-1.9l7.3-20.1c.1-.5.4-.7 1-.7h1.9c.8 0 1.3.5 1 1.3l-7.4 20.4c-.3 1.2-1 2.1-1.9 2.8.9.8 1.6 1.6 1.9 2.7l7.6 20.9c.2.8-.3 1.4-1 1.4H256c-.5 0-.9-.2-1-.6L247.5 47c-.3-1.1-1.4-1.8-2.6-1.8h-2.8v22.3c0 .7-.3 1-1.1 1h-1.7c-.7 0-1-.3-1-1V20.1c0-.7.3-1 1-1h1.7zm29.4 45.2c0 .5.3.8.8.8h11.7c.8 0 1.1.3 1.1 1v1.5c0 .7-.3 1-1.1 1h-15.3c-.7 0-1-.3-1-1V20.1c0-.7.3-1 1-1h1.7c.8 0 1.1.3 1.1 1v44.2zm35.7-45.2c.8 0 1.1.3 1.1 1.1v1.4c0 .7-.3 1-1.1 1h-11.7c-.5 0-.8.3-.8.8v18.3h9.5c.7 0 1 .3 1 1v1.5c0 .7-.3 1-1 1h-9.5v19c0 .5.3.8.8.8h11.7c.8 0 1.1.3 1.1 1v1.5c0 .5-.3 1-1.1 1h-15.2c-.8 0-1.1-.5-1.1-1V20.1c0-.5.4-1 1-1h15.3zm11.9 27v21.5c0 .7-.3 1-1.1 1h-1.7c-.7 0-1-.3-1-1V20.1c0-.7.3-1 1-1h9.8c5.8 0 9.3 3.6 9.3 9.3v8.4c0 5.8-3.6 9.3-9.3 9.3h-7zm6.1-3.5c4.1 0 6.4-2.2 6.4-6.4V29c0-4.2-2.3-6.4-6.4-6.4h-5.5c-.5 0-.7.3-.7.8v19.1h6.2z" fill="#004994"/></svg>